<svg width="16" height="16" viewBox="0 0 16 16" fill="none" xmlns="http://www.w3.org/2000/svg">
<rect width="16" height="16" fill="black"/>
<path d="M2.54991 5.88811H3.28881V8.48638C3.28881 8.78553 3.22433 9.0372 3.09535 9.24141C2.96638 9.44383 2.79083 9.59698 2.56871 9.70088C2.34659 9.80298 2.09402 9.85403 1.811 9.85403C1.52439 9.85403 1.26913 9.80298 1.04522 9.70088C0.821308 9.59698 0.645761 9.44383 0.518579 9.24141C0.391397 9.0372 0.327807 8.78553 0.327807 8.48638V5.88811H1.06671V8.48638C1.06671 8.66909 1.09717 8.81866 1.15807 8.9351C1.21897 9.04974 1.30496 9.13483 1.41602 9.19036C1.52708 9.24589 1.65874 9.27365 1.811 9.27365C1.96505 9.27365 2.09671 9.24589 2.20598 9.19036C2.31704 9.13483 2.40212 9.04974 2.46124 8.9351C2.52035 8.81866 2.54991 8.66909 2.54991 8.48638V5.88811ZM7.13382 5.88811V9.80029H6.39223L4.72901 7.08648V9.80029H3.9901V5.88811H4.72901L6.3976 8.60461V5.88811H7.13382ZM10.3689 9.21991V9.80029H8.40206V9.21991H10.3689ZM8.62507 5.88811V9.80029H7.88617V5.88811H8.62507Z" fill="white"/>
<path d="M14.6657 6.07406L13.1887 9.95601L12.5902 9.95601L14.0618 6.07406L14.6657 6.07406Z" fill="white"/>
<path d="M16 6.07211L14.523 9.95406L13.9245 9.95405L15.396 6.07211L16 6.07211Z" fill="white"/>
<rect x="10.9375" y="6.91943" width="0.702814" height="0.702814" fill="white"/>
<rect x="10.9375" y="9.21436" width="0.702814" height="0.702814" fill="white"/>
</svg>
