<svg width="16" height="6" viewBox="0 0 16 6" fill="none" xmlns="http://www.w3.org/2000/svg">
<g clip-path="url(#clip0_1_2)">
<path d="M16 -5H0V11H16V-5Z" fill="black"/>
<path d="M11.6403 3H10.9375V3.70281H11.6403V3Z" fill="white"/>
<path d="M2.54991 1H3.28881V3.59827C3.28881 3.89742 3.22433 4.14909 3.09535 4.3533C2.96638 4.55572 2.79083 4.70887 2.56871 4.81277C2.34659 4.91487 2.09402 4.96592 1.811 4.96592C1.52439 4.96592 1.26913 4.91487 1.04522 4.81277C0.821309 4.70887 0.645762 4.55572 0.51858 4.3533C0.391398 4.14909 0.327808 3.89742 0.327808 3.59827V1H1.06671V3.59827C1.06671 3.78098 1.09717 3.93055 1.15807 4.04699C1.21897 4.16163 1.30496 4.24672 1.41602 4.30225C1.52708 4.35778 1.65874 4.38554 1.811 4.38554C1.96505 4.38554 2.09671 4.35778 2.20598 4.30225C2.31704 4.24672 2.40212 4.16163 2.46124 4.04699C2.52035 3.93055 2.54991 3.78098 2.54991 3.59827V1ZM7.13382 1V4.91218H6.39223L4.72901 2.19837V4.91218H3.9901V1H4.72901L6.3976 3.7165V1H7.13382ZM10.3689 4.3318V4.91218H8.40206V4.3318H10.3689ZM8.62507 1V4.91218H7.88617V1H8.62507Z" fill="white"/>
<path d="M14.6657 1L13.1887 4.88195H12.5902L14.0618 1H14.6657Z" fill="white"/>
<path d="M16 1L14.523 4.88195L13.9245 4.88194L15.396 1H16Z" fill="white"/>
<path d="M11.6403 3H10.9375V3.70281H11.6403V3Z" fill="white"/>
</g>
<defs>
<clipPath id="clip0_1_2">
<rect width="16" height="6" fill="white"/>
</clipPath>
</defs>
</svg>
