<?xml version="1.0" standalone="no"?>
<!DOCTYPE svg PUBLIC "-//W3C//DTD SVG 20010904//EN"
 "http://www.w3.org/TR/2001/REC-SVG-20010904/DTD/svg10.dtd">
<svg version="1.0" xmlns="http://www.w3.org/2000/svg"
 width="1654.000000pt" height="642.000000pt" viewBox="0 0 1654.000000 642.000000"
 preserveAspectRatio="xMidYMid meet">

<g transform="translate(0.000000,642.000000) scale(0.100000,-0.100000)"
fill="#000000" stroke="none">
<path d="M1150 3862 c0 -1169 1 -1216 45 -1424 82 -396 309 -695 656 -865 164
-80 352 -122 584 -130 640 -22 1132 290 1314 833 38 113 57 200 76 356 13 103
15 303 15 1235 l0 1113 -280 0 -280 0 0 -1012 c0 -1093 -6 -1268 -45 -1424
-69 -277 -230 -456 -480 -533 -73 -23 -96 -25 -260 -25 -163 0 -188 3 -260 25
-260 80 -430 277 -490 569 -29 139 -34 332 -35 1368 l0 1032 -280 0 -280 0 0
-1118z"/>
<path d="M4500 3225 l0 -1755 283 2 282 3 5 1286 5 1286 845 -1286 846 -1286
282 -3 282 -2 0 1755 0 1755 -280 0 -280 0 -2 -1297 -3 -1298 -155 235 c-86
129 -405 616 -710 1083 -305 466 -618 943 -695 1060 l-140 212 -282 3 -283 2
0 -1755z"/>
<path d="M8020 3225 l0 -1755 885 0 885 0 0 225 0 225 -605 0 -605 0 0 1530 0
1530 -280 0 -280 0 0 -1755z"/>
<path d="M13626 4972 c-3 -5 -304 -793 -670 -1753 -365 -959 -667 -1752 -671
-1762 -7 -16 8 -17 270 -15 l277 3 659 1730 c362 952 666 1747 674 1768 l15
37 -274 0 c-151 0 -277 -4 -280 -8z"/>
<path d="M14835 4968 c-3 -7 -291 -764 -641 -1683 -349 -918 -651 -1709 -669
-1757 l-33 -88 277 0 276 0 670 1761 c369 969 672 1765 673 1770 2 5 -114 9
-272 9 -212 0 -278 -3 -281 -12z"/>
<path d="M10780 3895 l0 -315 320 0 320 0 0 315 0 315 -320 0 -320 0 0 -315z"/>
<path d="M10780 1785 l0 -315 320 0 320 0 0 315 0 315 -320 0 -320 0 0 -315z"/>
</g>
</svg>
